<mxfile host="app.diagrams.net" modified="2022-06-18T09:57:44.869Z" agent="5.0 (Windows NT 10.0; Win64; x64) AppleWebKit/537.36 (KHTML, like Gecko) Chrome/102.0.0.0 Safari/537.36" etag="LcyEqzWTG75hm8sDIT0p" version="15.6.8" type="github">
  <diagram id="qTan8aYv9SdgYgfNz9hJ" name="Page-1">
    <mxGraphModel dx="904" dy="435" grid="0" gridSize="10" guides="1" tooltips="1" connect="1" arrows="1" fold="1" page="1" pageScale="1" pageWidth="827" pageHeight="1169" math="0" shadow="0">
      <root>
        <mxCell id="0" />
        <mxCell id="1" parent="0" />
        <mxCell id="BVaIcda5pK7n5WSCqfQQ-6" style="edgeStyle=orthogonalEdgeStyle;rounded=0;orthogonalLoop=1;jettySize=auto;html=1;exitX=1;exitY=0.5;exitDx=0;exitDy=0;entryX=0;entryY=0.5;entryDx=0;entryDy=0;" edge="1" parent="1" source="BVaIcda5pK7n5WSCqfQQ-1" target="BVaIcda5pK7n5WSCqfQQ-2">
          <mxGeometry relative="1" as="geometry" />
        </mxCell>
        <mxCell id="BVaIcda5pK7n5WSCqfQQ-1" value="스레드 객체 생성&lt;br&gt;NEW" style="rounded=1;whiteSpace=wrap;html=1;fillColor=#f8cecc;strokeColor=#b85450;" vertex="1" parent="1">
          <mxGeometry x="50" y="150" width="120" height="60" as="geometry" />
        </mxCell>
        <mxCell id="BVaIcda5pK7n5WSCqfQQ-7" style="edgeStyle=orthogonalEdgeStyle;rounded=0;orthogonalLoop=1;jettySize=auto;html=1;exitX=0.25;exitY=1;exitDx=0;exitDy=0;entryX=0.25;entryY=0;entryDx=0;entryDy=0;" edge="1" parent="1" source="BVaIcda5pK7n5WSCqfQQ-2" target="BVaIcda5pK7n5WSCqfQQ-4">
          <mxGeometry relative="1" as="geometry" />
        </mxCell>
        <mxCell id="BVaIcda5pK7n5WSCqfQQ-2" value="실행대기&lt;br&gt;RUNNABLE" style="rounded=1;whiteSpace=wrap;html=1;fillColor=#dae8fc;strokeColor=#6c8ebf;" vertex="1" parent="1">
          <mxGeometry x="260" y="150" width="120" height="60" as="geometry" />
        </mxCell>
        <mxCell id="BVaIcda5pK7n5WSCqfQQ-9" style="edgeStyle=orthogonalEdgeStyle;rounded=0;orthogonalLoop=1;jettySize=auto;html=1;exitX=0.5;exitY=0;exitDx=0;exitDy=0;entryX=1;entryY=0.5;entryDx=0;entryDy=0;" edge="1" parent="1" source="BVaIcda5pK7n5WSCqfQQ-3" target="BVaIcda5pK7n5WSCqfQQ-2">
          <mxGeometry relative="1" as="geometry" />
        </mxCell>
        <mxCell id="BVaIcda5pK7n5WSCqfQQ-3" value="일시정지&lt;br&gt;WAITING, BLOCKED" style="rounded=1;whiteSpace=wrap;html=1;" vertex="1" parent="1">
          <mxGeometry x="440" y="230" width="120" height="60" as="geometry" />
        </mxCell>
        <mxCell id="BVaIcda5pK7n5WSCqfQQ-8" value="yield()&lt;br&gt;OR&lt;br&gt;주어진 실행시간 다됨." style="edgeStyle=orthogonalEdgeStyle;rounded=0;orthogonalLoop=1;jettySize=auto;html=1;exitX=0.75;exitY=0;exitDx=0;exitDy=0;entryX=0.75;entryY=1;entryDx=0;entryDy=0;" edge="1" parent="1" source="BVaIcda5pK7n5WSCqfQQ-4" target="BVaIcda5pK7n5WSCqfQQ-2">
          <mxGeometry relative="1" as="geometry" />
        </mxCell>
        <mxCell id="BVaIcda5pK7n5WSCqfQQ-10" style="edgeStyle=orthogonalEdgeStyle;rounded=0;orthogonalLoop=1;jettySize=auto;html=1;exitX=1;exitY=0.5;exitDx=0;exitDy=0;entryX=0.5;entryY=1;entryDx=0;entryDy=0;" edge="1" parent="1" source="BVaIcda5pK7n5WSCqfQQ-4" target="BVaIcda5pK7n5WSCqfQQ-3">
          <mxGeometry relative="1" as="geometry" />
        </mxCell>
        <mxCell id="BVaIcda5pK7n5WSCqfQQ-11" style="edgeStyle=orthogonalEdgeStyle;rounded=0;orthogonalLoop=1;jettySize=auto;html=1;exitX=0;exitY=0.5;exitDx=0;exitDy=0;entryX=1;entryY=0.5;entryDx=0;entryDy=0;" edge="1" parent="1" source="BVaIcda5pK7n5WSCqfQQ-4" target="BVaIcda5pK7n5WSCqfQQ-5">
          <mxGeometry relative="1" as="geometry" />
        </mxCell>
        <mxCell id="BVaIcda5pK7n5WSCqfQQ-4" value="실행&lt;br&gt;RUNNABLE" style="rounded=1;whiteSpace=wrap;html=1;fillColor=#dae8fc;strokeColor=#6c8ebf;" vertex="1" parent="1">
          <mxGeometry x="260" y="320" width="120" height="60" as="geometry" />
        </mxCell>
        <mxCell id="BVaIcda5pK7n5WSCqfQQ-5" value="종료&lt;br&gt;소멸&lt;br&gt;TERMINATED" style="rounded=1;whiteSpace=wrap;html=1;fillColor=#f8cecc;strokeColor=#b85450;" vertex="1" parent="1">
          <mxGeometry x="50" y="320" width="120" height="60" as="geometry" />
        </mxCell>
        <mxCell id="BVaIcda5pK7n5WSCqfQQ-18" style="edgeStyle=orthogonalEdgeStyle;rounded=0;orthogonalLoop=1;jettySize=auto;html=1;exitX=0.5;exitY=0;exitDx=0;exitDy=0;fontSize=9;dashed=1;" edge="1" parent="1" source="BVaIcda5pK7n5WSCqfQQ-12" target="BVaIcda5pK7n5WSCqfQQ-17">
          <mxGeometry relative="1" as="geometry" />
        </mxCell>
        <mxCell id="BVaIcda5pK7n5WSCqfQQ-12" value="start()" style="text;html=1;strokeColor=none;fillColor=none;align=center;verticalAlign=middle;whiteSpace=wrap;rounded=0;" vertex="1" parent="1">
          <mxGeometry x="180" y="150" width="60" height="30" as="geometry" />
        </mxCell>
        <mxCell id="BVaIcda5pK7n5WSCqfQQ-13" value="interrupt()&lt;br&gt;notify()&lt;br&gt;notifyAll()&lt;br&gt;resume()&lt;br&gt;time-out : 일시정지 시간다됨." style="text;html=1;strokeColor=none;fillColor=none;align=left;verticalAlign=middle;whiteSpace=wrap;rounded=0;" vertex="1" parent="1">
          <mxGeometry x="400" y="130" width="177" height="30" as="geometry" />
        </mxCell>
        <mxCell id="BVaIcda5pK7n5WSCqfQQ-14" value="sleep()&lt;br&gt;join()&lt;br&gt;wait()&lt;br&gt;suspend()&lt;br&gt;I/O block" style="text;html=1;strokeColor=none;fillColor=none;align=left;verticalAlign=middle;whiteSpace=wrap;rounded=0;" vertex="1" parent="1">
          <mxGeometry x="395" y="376" width="60" height="30" as="geometry" />
        </mxCell>
        <mxCell id="BVaIcda5pK7n5WSCqfQQ-15" value="stop()&lt;br&gt;OR&lt;br&gt;실행 모두 마침" style="text;html=1;strokeColor=none;fillColor=none;align=center;verticalAlign=middle;whiteSpace=wrap;rounded=0;" vertex="1" parent="1">
          <mxGeometry x="172" y="358" width="88" height="30" as="geometry" />
        </mxCell>
        <mxCell id="BVaIcda5pK7n5WSCqfQQ-17" value="실행 대기열에 저장&lt;br style=&quot;font-size: 9px;&quot;&gt;실행 대기열은 QUEUE 구조" style="text;html=1;strokeColor=none;fillColor=none;align=center;verticalAlign=middle;whiteSpace=wrap;rounded=0;fontSize=9;" vertex="1" parent="1">
          <mxGeometry x="117" y="98" width="186" height="30" as="geometry" />
        </mxCell>
        <mxCell id="BVaIcda5pK7n5WSCqfQQ-19" value="자신의 차례가 되면 실행상태가 됨" style="text;html=1;strokeColor=none;fillColor=none;align=center;verticalAlign=middle;whiteSpace=wrap;rounded=0;fontSize=9;" vertex="1" parent="1">
          <mxGeometry x="185" y="245" width="99" height="30" as="geometry" />
        </mxCell>
        <mxCell id="BVaIcda5pK7n5WSCqfQQ-22" value="&lt;span style=&quot;color: rgb(0, 0, 0); font-family: helvetica; font-size: 12px; font-style: normal; font-weight: 400; letter-spacing: normal; text-indent: 0px; text-transform: none; word-spacing: 0px; background-color: rgb(248, 249, 250); display: inline; float: none;&quot;&gt;* I/O block :&amp;nbsp; 입출력작업에서 발생하는 지연상태&lt;br&gt;EX)&amp;nbsp;사용자의 입력을 기다리는 경우&lt;br&gt;&lt;/span&gt;" style="text;whiteSpace=wrap;html=1;fontSize=9;align=center;" vertex="1" parent="1">
          <mxGeometry x="303" y="434" width="267" height="69" as="geometry" />
        </mxCell>
      </root>
    </mxGraphModel>
  </diagram>
</mxfile>
